<?xml version="1.0" encoding="UTF-8" standalone="no"?>
<!DOCTYPE svg PUBLIC "-//W3C//DTD SVG 1.1//EN"
 "http://www.w3.org/Graphics/SVG/1.1/DTD/svg11.dtd">
<!-- Generated by graphviz version 2.38.0 (20140413.2041)
 -->
<!-- Title: forest_graph Pages: 1 -->
<svg width="463pt" height="188pt"
 viewBox="0.00 0.00 463.44 188.00" xmlns="http://www.w3.org/2000/svg" xmlns:xlink="http://www.w3.org/1999/xlink">
<g id="graph0" class="graph" transform="scale(1 1) rotate(0) translate(4 184)">
<title>forest_graph</title>
<polygon fill="white" stroke="none" points="-4,4 -4,-184 459.445,-184 459.445,4 -4,4"/>
<!-- (0,0) -->
<g id="node1" class="node"><title>(0,0)</title>
<ellipse fill="none" stroke="black" cx="27.9475" cy="-18" rx="27.8951" ry="18"/>
<text text-anchor="middle" x="27.9475" y="-14.3" font-family="Times New Roman,serif" font-size="14.00">(0,0)</text>
</g>
<!-- (0,X) -->
<g id="node2" class="node"><title>(0,X)</title>
<ellipse fill="none" stroke="black" cx="103.948" cy="-18" rx="29.795" ry="18"/>
<text text-anchor="middle" x="103.948" y="-14.3" font-family="Times New Roman,serif" font-size="14.00">(0,X)</text>
</g>
<!-- (0,1) -->
<g id="node3" class="node"><title>(0,1)</title>
<ellipse fill="none" stroke="black" cx="103.948" cy="-90" rx="27.8951" ry="18"/>
<text text-anchor="middle" x="103.948" y="-86.3" font-family="Times New Roman,serif" font-size="14.00">(0,1)</text>
</g>
<!-- (0,X)&#45;&#45;(0,1) -->
<g id="edge1" class="edge"><title>(0,X)&#45;&#45;(0,1)</title>
<path fill="none" stroke="black" d="M103.948,-36.3034C103.948,-47.1537 103.948,-61.0833 103.948,-71.8957"/>
</g>
<!-- (0,Y) -->
<g id="node4" class="node"><title>(0,Y)</title>
<ellipse fill="none" stroke="red" cx="181.948" cy="-18" rx="29.795" ry="18"/>
<text text-anchor="middle" x="181.948" y="-14.3" font-family="Times New Roman,serif" font-size="14.00">(0,Y)</text>
</g>
<!-- (0,1)1 -->
<g id="node5" class="node"><title>(0,1)1</title>
<ellipse fill="none" stroke="black" cx="181.948" cy="-90" rx="32.4942" ry="18"/>
<text text-anchor="middle" x="181.948" y="-86.3" font-family="Times New Roman,serif" font-size="14.00">(0,1)1</text>
</g>
<!-- (0,Y)&#45;&#45;(0,1)1 -->
<g id="edge2" class="edge"><title>(0,Y)&#45;&#45;(0,1)1</title>
<path fill="none" stroke="black" d="M181.948,-36.3034C181.948,-47.1537 181.948,-61.0833 181.948,-71.8957"/>
</g>
<!-- (X,Y) -->
<g id="node6" class="node"><title>(X,Y)</title>
<ellipse fill="none" stroke="red" cx="344.948" cy="-18" rx="31.6951" ry="18"/>
<text text-anchor="middle" x="344.948" y="-14.3" font-family="Times New Roman,serif" font-size="14.00">(X,Y)</text>
</g>
<!-- (1,1)1 -->
<g id="node7" class="node"><title>(1,1)1</title>
<ellipse fill="none" stroke="black" cx="264.948" cy="-90" rx="32.4942" ry="18"/>
<text text-anchor="middle" x="264.948" y="-86.3" font-family="Times New Roman,serif" font-size="14.00">(1,1)1</text>
</g>
<!-- (X,Y)&#45;&#45;(1,1)1 -->
<g id="edge3" class="edge"><title>(X,Y)&#45;&#45;(1,1)1</title>
<path fill="none" stroke="black" d="M328.371,-33.504C314.733,-45.4377 295.485,-62.2797 281.778,-74.2737"/>
</g>
<!-- (X,1) -->
<g id="node8" class="node"><title>(X,1)</title>
<ellipse fill="none" stroke="black" cx="344.948" cy="-90" rx="29.795" ry="18"/>
<text text-anchor="middle" x="344.948" y="-86.3" font-family="Times New Roman,serif" font-size="14.00">(X,1)</text>
</g>
<!-- (X,Y)&#45;&#45;(X,1) -->
<g id="edge4" class="edge"><title>(X,Y)&#45;&#45;(X,1)</title>
<path fill="none" stroke="black" d="M344.948,-36.3034C344.948,-47.1537 344.948,-61.0833 344.948,-71.8957"/>
</g>
<!-- (1,Y) -->
<g id="node9" class="node"><title>(1,Y)</title>
<ellipse fill="none" stroke="red" cx="422.948" cy="-90" rx="29.795" ry="18"/>
<text text-anchor="middle" x="422.948" y="-86.3" font-family="Times New Roman,serif" font-size="14.00">(1,Y)</text>
</g>
<!-- (X,Y)&#45;&#45;(1,Y) -->
<g id="edge5" class="edge"><title>(X,Y)&#45;&#45;(1,Y)</title>
<path fill="none" stroke="black" d="M361.489,-33.8452C374.905,-45.885 393.699,-62.7515 406.963,-74.655"/>
</g>
<!-- (1,1) -->
<g id="node10" class="node"><title>(1,1)</title>
<ellipse fill="none" stroke="black" cx="344.948" cy="-162" rx="27.8951" ry="18"/>
<text text-anchor="middle" x="344.948" y="-158.3" font-family="Times New Roman,serif" font-size="14.00">(1,1)</text>
</g>
<!-- (X,1)&#45;&#45;(1,1) -->
<g id="edge6" class="edge"><title>(X,1)&#45;&#45;(1,1)</title>
<path fill="none" stroke="black" d="M344.948,-108.303C344.948,-119.154 344.948,-133.083 344.948,-143.896"/>
</g>
<!-- (1,1)2 -->
<g id="node11" class="node"><title>(1,1)2</title>
<ellipse fill="none" stroke="black" cx="422.948" cy="-162" rx="32.4942" ry="18"/>
<text text-anchor="middle" x="422.948" y="-158.3" font-family="Times New Roman,serif" font-size="14.00">(1,1)2</text>
</g>
<!-- (1,Y)&#45;&#45;(1,1)2 -->
<g id="edge7" class="edge"><title>(1,Y)&#45;&#45;(1,1)2</title>
<path fill="none" stroke="black" d="M422.948,-108.303C422.948,-119.154 422.948,-133.083 422.948,-143.896"/>
</g>
</g>
</svg>
