<?xml version="1.0" encoding="UTF-8" standalone="no"?>
<!DOCTYPE svg PUBLIC "-//W3C//DTD SVG 1.1//EN"
 "http://www.w3.org/Graphics/SVG/1.1/DTD/svg11.dtd">
<!-- Generated by graphviz version 2.38.0 (20140413.2041)
 -->
<!-- Title: forest_graph Pages: 1 -->
<svg width="687pt" height="548pt"
 viewBox="0.00 0.00 687.15 548.00" xmlns="http://www.w3.org/2000/svg" xmlns:xlink="http://www.w3.org/1999/xlink">
<g id="graph0" class="graph" transform="scale(1 1) rotate(0) translate(4 544)">
<title>forest_graph</title>
<polygon fill="white" stroke="none" points="-4,4 -4,-544 683.145,-544 683.145,4 -4,4"/>
<!-- {{a},{c}} -->
<g id="node1" class="node"><title>{{a},{c}}</title>
<ellipse fill="none" stroke="black" cx="385.053" cy="-378" rx="48.1917" ry="18"/>
<text text-anchor="middle" x="385.053" y="-374.3" font-family="Times New Roman,serif" font-size="14.00">{{a},{c}}</text>
</g>
<!-- {{a,b},{c}} -->
<g id="node2" class="node"><title>{{a,b},{c}}</title>
<ellipse fill="none" stroke="black" cx="300.053" cy="-450" rx="55.4913" ry="18"/>
<text text-anchor="middle" x="300.053" y="-446.3" font-family="Times New Roman,serif" font-size="14.00">{{a,b},{c}}</text>
</g>
<!-- {{a},{c}}&#45;&#45;{{a,b},{c}} -->
<g id="edge1" class="edge"><title>{{a},{c}}&#45;&#45;{{a,b},{c}}</title>
<path fill="none" stroke="black" d="M365.765,-394.884C351.952,-406.259 333.42,-421.521 319.558,-432.936"/>
</g>
<!-- {{a},{c,d}} -->
<g id="node3" class="node"><title>{{a},{c,d}}</title>
<ellipse fill="none" stroke="black" cx="466.053" cy="-450" rx="55.4913" ry="18"/>
<text text-anchor="middle" x="466.053" y="-446.3" font-family="Times New Roman,serif" font-size="14.00">{{a},{c,d}}</text>
</g>
<!-- {{a},{c}}&#45;&#45;{{a},{c,d}} -->
<g id="edge2" class="edge"><title>{{a},{c}}&#45;&#45;{{a},{c,d}}</title>
<path fill="none" stroke="black" d="M403.433,-394.884C416.595,-406.259 434.255,-421.521 447.465,-432.936"/>
</g>
<!-- {{a,b},{c,d}} -->
<g id="node4" class="node"><title>{{a,b},{c,d}}</title>
<ellipse fill="none" stroke="black" cx="383.053" cy="-522" rx="62.2891" ry="18"/>
<text text-anchor="middle" x="383.053" y="-518.3" font-family="Times New Roman,serif" font-size="14.00">{{a,b},{c,d}}</text>
</g>
<!-- {{a},{c}}&#45;&#45;{{a,b},{c,d}} -->
<g id="edge3" class="edge"><title>{{a},{c}}&#45;&#45;{{a,b},{c,d}}</title>
<path fill="none" stroke="black" d="M384.811,-396.129C384.427,-423.422 383.68,-476.48 383.295,-503.811"/>
</g>
<!-- {{a,b},{c}}&#45;&#45;{{a,b},{c,d}} -->
<g id="edge14" class="edge"><title>{{a,b},{c}}&#45;&#45;{{a,b},{c,d}}</title>
<path fill="none" stroke="black" d="M319.303,-467.235C332.712,-478.544 350.52,-493.563 363.906,-504.853"/>
</g>
<!-- {{a},{c,d}}&#45;&#45;{{a,b},{c,d}} -->
<g id="edge4" class="edge"><title>{{a},{c,d}}&#45;&#45;{{a,b},{c,d}}</title>
<path fill="none" stroke="black" d="M446.802,-467.235C433.393,-478.544 415.585,-493.563 402.199,-504.853"/>
</g>
<!-- {{a},{1/2(1)}} -->
<g id="node5" class="node"><title>{{a},{1/2(1)}}</title>
<ellipse fill="none" stroke="black" cx="293.053" cy="-306" rx="64.9885" ry="18"/>
<text text-anchor="middle" x="293.053" y="-302.3" font-family="Times New Roman,serif" font-size="14.00">{{a},{1/2(1)}}</text>
</g>
<!-- {{a},{1/2(1)}}&#45;&#45;{{a},{c}} -->
<g id="edge6" class="edge"><title>{{a},{1/2(1)}}&#45;&#45;{{a},{c}}</title>
<path fill="none" stroke="black" d="M314.39,-323.235C329.572,-334.786 349.841,-350.209 364.777,-361.573"/>
</g>
<!-- {{a},{1/2(1)}}&#45;&#45;{{a,b},{c}} -->
<g id="edge7" class="edge"><title>{{a},{1/2(1)}}&#45;&#45;{{a,b},{c}}</title>
<path fill="none" stroke="black" d="M293.897,-324.129C295.242,-351.422 297.858,-404.48 299.205,-431.811"/>
</g>
<!-- {{a,b},{1/2(1)}} -->
<g id="node6" class="node"><title>{{a,b},{1/2(1)}}</title>
<ellipse fill="none" stroke="black" cx="200.053" cy="-378" rx="72.2875" ry="18"/>
<text text-anchor="middle" x="200.053" y="-374.3" font-family="Times New Roman,serif" font-size="14.00">{{a,b},{1/2(1)}}</text>
</g>
<!-- {{a},{1/2(1)}}&#45;&#45;{{a,b},{1/2(1)}} -->
<g id="edge5" class="edge"><title>{{a},{1/2(1)}}&#45;&#45;{{a,b},{1/2(1)}}</title>
<path fill="none" stroke="black" d="M271.483,-323.235C256.566,-334.463 236.789,-349.349 221.828,-360.61"/>
</g>
<!-- {{a,b},{1/2(1)}}&#45;&#45;{{a,b},{c}} -->
<g id="edge15" class="edge"><title>{{a,b},{1/2(1)}}&#45;&#45;{{a,b},{c}}</title>
<path fill="none" stroke="black" d="M223.246,-395.235C239.632,-406.706 261.471,-421.993 277.673,-433.334"/>
</g>
<!-- {{a},{c&#39;}} -->
<g id="node7" class="node"><title>{{a},{c&#39;}}</title>
<ellipse fill="none" stroke="black" cx="215.053" cy="-234" rx="50.0912" ry="18"/>
<text text-anchor="middle" x="215.053" y="-230.3" font-family="Times New Roman,serif" font-size="14.00">{{a},{c&#39;}}</text>
</g>
<!-- {{a},{c&#39;}}&#45;&#45;{{a},{1/2(1)}} -->
<g id="edge9" class="edge"><title>{{a},{c&#39;}}&#45;&#45;{{a},{1/2(1)}}</title>
<path fill="none" stroke="black" d="M232.752,-250.884C245.337,-262.179 262.192,-277.304 274.882,-288.693"/>
</g>
<!-- {{a},{c&#39;}}&#45;&#45;{{a,b},{1/2(1)}} -->
<g id="edge10" class="edge"><title>{{a},{c&#39;}}&#45;&#45;{{a,b},{1/2(1)}}</title>
<path fill="none" stroke="black" d="M213.243,-252.129C210.36,-279.422 204.755,-332.48 201.868,-359.811"/>
</g>
<!-- {{a,b},{c&#39;}} -->
<g id="node8" class="node"><title>{{a,b},{c&#39;}}</title>
<ellipse fill="none" stroke="black" cx="98.0525" cy="-306" rx="57.3905" ry="18"/>
<text text-anchor="middle" x="98.0525" y="-302.3" font-family="Times New Roman,serif" font-size="14.00">{{a,b},{c&#39;}}</text>
</g>
<!-- {{a},{c&#39;}}&#45;&#45;{{a,b},{c&#39;}} -->
<g id="edge8" class="edge"><title>{{a},{c&#39;}}&#45;&#45;{{a,b},{c&#39;}}</title>
<path fill="none" stroke="black" d="M190.24,-249.845C170.653,-261.564 143.423,-277.855 123.638,-289.692"/>
</g>
<!-- {{a,b},{c&#39;}}&#45;&#45;{{a,b},{1/2(1)}} -->
<g id="edge16" class="edge"><title>{{a,b},{c&#39;}}&#45;&#45;{{a,b},{1/2(1)}}</title>
<path fill="none" stroke="black" d="M120.69,-322.535C137.241,-333.894 159.635,-349.263 176.415,-360.778"/>
</g>
<!-- {{a},{c&#39;,d&#39;}} -->
<g id="node9" class="node"><title>{{a},{c&#39;,d&#39;}}</title>
<ellipse fill="none" stroke="black" cx="101.053" cy="-162" rx="59.2899" ry="18"/>
<text text-anchor="middle" x="101.053" y="-158.3" font-family="Times New Roman,serif" font-size="14.00">{{a},{c&#39;,d&#39;}}</text>
</g>
<!-- {{a},{c&#39;,d&#39;}}&#45;&#45;{{a},{c&#39;}} -->
<g id="edge12" class="edge"><title>{{a},{c&#39;,d&#39;}}&#45;&#45;{{a},{c&#39;}}</title>
<path fill="none" stroke="black" d="M126.07,-178.362C145.34,-190.194 171.819,-206.453 190.875,-218.154"/>
</g>
<!-- {{a},{c&#39;,d&#39;}}&#45;&#45;{{a,b},{c&#39;}} -->
<g id="edge13" class="edge"><title>{{a},{c&#39;,d&#39;}}&#45;&#45;{{a,b},{c&#39;}}</title>
<path fill="none" stroke="black" d="M59.805,-175.03C39.8421,-183.163 17.7195,-196.131 6.05251,-216 -2.04922,-229.797 -1.95406,-238.147 6.05251,-252 17.3981,-271.63 39.0795,-284.632 58.5456,-292.843"/>
</g>
<!-- {{a,b},{c&#39;,d&#39;}} -->
<g id="node10" class="node"><title>{{a,b},{c&#39;,d&#39;}}</title>
<ellipse fill="none" stroke="black" cx="81.0525" cy="-234" rx="66.0889" ry="18"/>
<text text-anchor="middle" x="81.0525" y="-230.3" font-family="Times New Roman,serif" font-size="14.00">{{a,b},{c&#39;,d&#39;}}</text>
</g>
<!-- {{a},{c&#39;,d&#39;}}&#45;&#45;{{a,b},{c&#39;,d&#39;}} -->
<g id="edge11" class="edge"><title>{{a},{c&#39;,d&#39;}}&#45;&#45;{{a,b},{c&#39;,d&#39;}}</title>
<path fill="none" stroke="black" d="M96.2111,-179.945C93.1128,-190.789 89.1048,-204.817 85.9883,-215.725"/>
</g>
<!-- {{a,b},{c&#39;,d&#39;}}&#45;&#45;{{a,b},{c&#39;}} -->
<g id="edge17" class="edge"><title>{{a,b},{c&#39;,d&#39;}}&#45;&#45;{{a,b},{c&#39;}}</title>
<path fill="none" stroke="black" d="M85.2548,-252.303C87.8898,-263.154 91.2727,-277.083 93.8986,-287.896"/>
</g>
<!-- {{a&#39;},{c}} -->
<g id="node11" class="node"><title>{{a&#39;},{c}}</title>
<ellipse fill="none" stroke="black" cx="464.053" cy="-306" rx="50.0912" ry="18"/>
<text text-anchor="middle" x="464.053" y="-302.3" font-family="Times New Roman,serif" font-size="14.00">{{a&#39;},{c}}</text>
</g>
<!-- {{a&#39;},{c}}&#45;&#45;{{a},{c}} -->
<g id="edge18" class="edge"><title>{{a&#39;},{c}}&#45;&#45;{{a},{c}}</title>
<path fill="none" stroke="black" d="M446.126,-322.884C433.197,-334.34 415.82,-349.737 402.908,-361.179"/>
</g>
<!-- {{a&#39;},{c}}&#45;&#45;{{a},{c,d}} -->
<g id="edge20" class="edge"><title>{{a&#39;},{c}}&#45;&#45;{{a},{c,d}}</title>
<path fill="none" stroke="black" d="M464.294,-324.129C464.678,-351.422 465.425,-404.48 465.81,-431.811"/>
</g>
<!-- {{a&#39;},{c,d}} -->
<g id="node12" class="node"><title>{{a&#39;},{c,d}}</title>
<ellipse fill="none" stroke="black" cx="573.053" cy="-378" rx="57.3905" ry="18"/>
<text text-anchor="middle" x="573.053" y="-374.3" font-family="Times New Roman,serif" font-size="14.00">{{a&#39;},{c,d}}</text>
</g>
<!-- {{a&#39;},{c}}&#45;&#45;{{a&#39;},{c,d}} -->
<g id="edge19" class="edge"><title>{{a&#39;},{c}}&#45;&#45;{{a&#39;},{c,d}}</title>
<path fill="none" stroke="black" d="M487.436,-322.017C505.576,-333.667 530.634,-349.759 548.954,-361.524"/>
</g>
<!-- {{a&#39;},{c,d}}&#45;&#45;{{a},{c,d}} -->
<g id="edge21" class="edge"><title>{{a&#39;},{c,d}}&#45;&#45;{{a},{c,d}}</title>
<path fill="none" stroke="black" d="M549.306,-394.535C531.574,-406.135 507.449,-421.918 489.733,-433.508"/>
</g>
<!-- {{a&#39;},{1/2(1)}} -->
<g id="node13" class="node"><title>{{a&#39;},{1/2(1)}}</title>
<ellipse fill="none" stroke="black" cx="388.053" cy="-234" rx="66.8882" ry="18"/>
<text text-anchor="middle" x="388.053" y="-230.3" font-family="Times New Roman,serif" font-size="14.00">{{a&#39;},{1/2(1)}}</text>
</g>
<!-- {{a&#39;},{1/2(1)}}&#45;&#45;{{a},{c}} -->
<g id="edge24" class="edge"><title>{{a&#39;},{1/2(1)}}&#45;&#45;{{a},{c}}</title>
<path fill="none" stroke="black" d="M387.691,-252.129C387.114,-279.422 385.993,-332.48 385.416,-359.811"/>
</g>
<!-- {{a&#39;},{1/2(1)}}&#45;&#45;{{a},{1/2(1)}} -->
<g id="edge22" class="edge"><title>{{a&#39;},{1/2(1)}}&#45;&#45;{{a},{1/2(1)}}</title>
<path fill="none" stroke="black" d="M366.019,-251.235C350.671,-262.544 330.288,-277.563 314.967,-288.853"/>
</g>
<!-- {{a&#39;},{1/2(1)}}&#45;&#45;{{a&#39;},{c}} -->
<g id="edge23" class="edge"><title>{{a&#39;},{1/2(1)}}&#45;&#45;{{a&#39;},{c}}</title>
<path fill="none" stroke="black" d="M406.063,-251.589C418.354,-262.909 434.545,-277.822 446.694,-289.012"/>
</g>
<!-- {{a&#39;},{c&#39;}} -->
<g id="node14" class="node"><title>{{a&#39;},{c&#39;}}</title>
<ellipse fill="none" stroke="black" cx="293.053" cy="-162" rx="51.9908" ry="18"/>
<text text-anchor="middle" x="293.053" y="-158.3" font-family="Times New Roman,serif" font-size="14.00">{{a&#39;},{c&#39;}}</text>
</g>
<!-- {{a&#39;},{c&#39;}}&#45;&#45;{{a},{1/2(1)}} -->
<g id="edge27" class="edge"><title>{{a&#39;},{c&#39;}}&#45;&#45;{{a},{1/2(1)}}</title>
<path fill="none" stroke="black" d="M293.053,-180.129C293.053,-207.422 293.053,-260.48 293.053,-287.811"/>
</g>
<!-- {{a&#39;},{c&#39;}}&#45;&#45;{{a},{c&#39;}} -->
<g id="edge25" class="edge"><title>{{a&#39;},{c&#39;}}&#45;&#45;{{a},{c&#39;}}</title>
<path fill="none" stroke="black" d="M274.962,-179.235C262.271,-190.625 245.385,-205.778 232.776,-217.094"/>
</g>
<!-- {{a&#39;},{c&#39;}}&#45;&#45;{{a&#39;},{1/2(1)}} -->
<g id="edge26" class="edge"><title>{{a&#39;},{c&#39;}}&#45;&#45;{{a&#39;},{1/2(1)}}</title>
<path fill="none" stroke="black" d="M314.136,-178.535C329.551,-189.894 350.409,-205.263 366.037,-216.778"/>
</g>
<!-- {{a&#39;},{c&#39;,d&#39;}} -->
<g id="node15" class="node"><title>{{a&#39;},{c&#39;,d&#39;}}</title>
<ellipse fill="none" stroke="black" cx="204.053" cy="-90" rx="61.1893" ry="18"/>
<text text-anchor="middle" x="204.053" y="-86.3" font-family="Times New Roman,serif" font-size="14.00">{{a&#39;},{c&#39;,d&#39;}}</text>
</g>
<!-- {{a&#39;},{c&#39;,d&#39;}}&#45;&#45;{{a},{c&#39;}} -->
<g id="edge30" class="edge"><title>{{a&#39;},{c&#39;,d&#39;}}&#45;&#45;{{a},{c&#39;}}</title>
<path fill="none" stroke="black" d="M205.379,-108.129C207.494,-135.422 211.604,-188.48 213.721,-215.811"/>
</g>
<!-- {{a&#39;},{c&#39;,d&#39;}}&#45;&#45;{{a},{c&#39;,d&#39;}} -->
<g id="edge28" class="edge"><title>{{a&#39;},{c&#39;,d&#39;}}&#45;&#45;{{a},{c&#39;,d&#39;}}</title>
<path fill="none" stroke="black" d="M180.937,-106.709C163.974,-118.238 141.036,-133.827 124.091,-145.343"/>
</g>
<!-- {{a&#39;},{c&#39;,d&#39;}}&#45;&#45;{{a&#39;},{c&#39;}} -->
<g id="edge29" class="edge"><title>{{a&#39;},{c&#39;,d&#39;}}&#45;&#45;{{a&#39;},{c&#39;}}</title>
<path fill="none" stroke="black" d="M224.695,-107.235C239.278,-118.706 258.715,-133.993 273.135,-145.334"/>
</g>
<!-- {{a&#39;,b&#39;},{c}} -->
<g id="node16" class="node"><title>{{a&#39;,b&#39;},{c}}</title>
<ellipse fill="none" stroke="black" cx="585.053" cy="-234" rx="59.2899" ry="18"/>
<text text-anchor="middle" x="585.053" y="-230.3" font-family="Times New Roman,serif" font-size="14.00">{{a&#39;,b&#39;},{c}}</text>
</g>
<!-- {{a&#39;,b&#39;},{c}}&#45;&#45;{{a&#39;},{c}} -->
<g id="edge31" class="edge"><title>{{a&#39;,b&#39;},{c}}&#45;&#45;{{a&#39;},{c}}</title>
<path fill="none" stroke="black" d="M558.797,-250.189C538.224,-262.091 509.772,-278.551 489.427,-290.32"/>
</g>
<!-- {{a&#39;,b&#39;},{c}}&#45;&#45;{{a&#39;},{c,d}} -->
<g id="edge33" class="edge"><title>{{a&#39;,b&#39;},{c}}&#45;&#45;{{a&#39;},{c,d}}</title>
<path fill="none" stroke="black" d="M623.345,-247.791C641.86,-256.132 662.348,-269.057 673.053,-288 680.924,-301.93 681.302,-310.291 673.053,-324 660.541,-344.792 636.828,-357.858 615.633,-365.813"/>
</g>
<!-- {{a&#39;,b&#39;},{c,d}} -->
<g id="node17" class="node"><title>{{a&#39;,b&#39;},{c,d}}</title>
<ellipse fill="none" stroke="black" cx="598.053" cy="-306" rx="66.0889" ry="18"/>
<text text-anchor="middle" x="598.053" y="-302.3" font-family="Times New Roman,serif" font-size="14.00">{{a&#39;,b&#39;},{c,d}}</text>
</g>
<!-- {{a&#39;,b&#39;},{c}}&#45;&#45;{{a&#39;,b&#39;},{c,d}} -->
<g id="edge32" class="edge"><title>{{a&#39;,b&#39;},{c}}&#45;&#45;{{a&#39;,b&#39;},{c,d}}</title>
<path fill="none" stroke="black" d="M588.266,-252.303C590.281,-263.154 592.868,-277.083 594.876,-287.896"/>
</g>
<!-- {{a&#39;,b&#39;},{c,d}}&#45;&#45;{{a&#39;},{c,d}} -->
<g id="edge34" class="edge"><title>{{a&#39;,b&#39;},{c,d}}&#45;&#45;{{a&#39;},{c,d}}</title>
<path fill="none" stroke="black" d="M592.001,-323.945C588.128,-334.789 583.118,-348.817 579.222,-359.725"/>
</g>
<!-- {{a&#39;,b&#39;},{1/2(1)}} -->
<g id="node18" class="node"><title>{{a&#39;,b&#39;},{1/2(1)}}</title>
<ellipse fill="none" stroke="black" cx="485.053" cy="-162" rx="76.0865" ry="18"/>
<text text-anchor="middle" x="485.053" y="-158.3" font-family="Times New Roman,serif" font-size="14.00">{{a&#39;,b&#39;},{1/2(1)}}</text>
</g>
<!-- {{a&#39;,b&#39;},{1/2(1)}}&#45;&#45;{{a&#39;},{c}} -->
<g id="edge37" class="edge"><title>{{a&#39;,b&#39;},{1/2(1)}}&#45;&#45;{{a&#39;},{c}}</title>
<path fill="none" stroke="black" d="M482.519,-180.129C478.483,-207.422 470.637,-260.48 466.595,-287.811"/>
</g>
<!-- {{a&#39;,b&#39;},{1/2(1)}}&#45;&#45;{{a&#39;},{1/2(1)}} -->
<g id="edge35" class="edge"><title>{{a&#39;,b&#39;},{1/2(1)}}&#45;&#45;{{a&#39;},{1/2(1)}}</title>
<path fill="none" stroke="black" d="M462.555,-179.235C446.884,-190.544 426.072,-205.563 410.428,-216.853"/>
</g>
<!-- {{a&#39;,b&#39;},{1/2(1)}}&#45;&#45;{{a&#39;,b&#39;},{c}} -->
<g id="edge36" class="edge"><title>{{a&#39;,b&#39;},{1/2(1)}}&#45;&#45;{{a&#39;,b&#39;},{c}}</title>
<path fill="none" stroke="black" d="M508.246,-179.235C524.632,-190.706 546.471,-205.993 562.673,-217.334"/>
</g>
<!-- {{a&#39;,b&#39;},{c&#39;}} -->
<g id="node19" class="node"><title>{{a&#39;,b&#39;},{c&#39;}}</title>
<ellipse fill="none" stroke="black" cx="382.053" cy="-90" rx="61.1893" ry="18"/>
<text text-anchor="middle" x="382.053" y="-86.3" font-family="Times New Roman,serif" font-size="14.00">{{a&#39;,b&#39;},{c&#39;}}</text>
</g>
<!-- {{a&#39;,b&#39;},{c&#39;}}&#45;&#45;{{a&#39;},{1/2(1)}} -->
<g id="edge40" class="edge"><title>{{a&#39;,b&#39;},{c&#39;}}&#45;&#45;{{a&#39;},{1/2(1)}}</title>
<path fill="none" stroke="black" d="M382.776,-108.129C383.929,-135.422 386.171,-188.48 387.326,-215.811"/>
</g>
<!-- {{a&#39;,b&#39;},{c&#39;}}&#45;&#45;{{a&#39;},{c&#39;}} -->
<g id="edge38" class="edge"><title>{{a&#39;,b&#39;},{c&#39;}}&#45;&#45;{{a&#39;},{c&#39;}}</title>
<path fill="none" stroke="black" d="M361.41,-107.235C346.827,-118.706 327.39,-133.993 312.97,-145.334"/>
</g>
<!-- {{a&#39;,b&#39;},{c&#39;}}&#45;&#45;{{a&#39;,b&#39;},{1/2(1)}} -->
<g id="edge39" class="edge"><title>{{a&#39;,b&#39;},{c&#39;}}&#45;&#45;{{a&#39;,b&#39;},{1/2(1)}}</title>
<path fill="none" stroke="black" d="M405.168,-106.709C421.894,-118.077 444.429,-133.392 461.3,-144.858"/>
</g>
<!-- {{a&#39;,b&#39;},{c&#39;,d&#39;}} -->
<g id="node20" class="node"><title>{{a&#39;,b&#39;},{c&#39;,d&#39;}}</title>
<ellipse fill="none" stroke="black" cx="293.053" cy="-18" rx="70.3881" ry="18"/>
<text text-anchor="middle" x="293.053" y="-14.3" font-family="Times New Roman,serif" font-size="14.00">{{a&#39;,b&#39;},{c&#39;,d&#39;}}</text>
</g>
<!-- {{a&#39;,b&#39;},{c&#39;,d&#39;}}&#45;&#45;{{a&#39;},{c&#39;}} -->
<g id="edge43" class="edge"><title>{{a&#39;,b&#39;},{c&#39;,d&#39;}}&#45;&#45;{{a&#39;},{c&#39;}}</title>
<path fill="none" stroke="black" d="M293.053,-36.1285C293.053,-63.4216 293.053,-116.48 293.053,-143.811"/>
</g>
<!-- {{a&#39;,b&#39;},{c&#39;,d&#39;}}&#45;&#45;{{a&#39;},{c&#39;,d&#39;}} -->
<g id="edge41" class="edge"><title>{{a&#39;,b&#39;},{c&#39;,d&#39;}}&#45;&#45;{{a&#39;},{c&#39;,d&#39;}}</title>
<path fill="none" stroke="black" d="M272.41,-35.2354C258.032,-46.544 238.936,-61.5633 224.583,-72.8527"/>
</g>
<!-- {{a&#39;,b&#39;},{c&#39;,d&#39;}}&#45;&#45;{{a&#39;,b&#39;},{c&#39;}} -->
<g id="edge42" class="edge"><title>{{a&#39;,b&#39;},{c&#39;,d&#39;}}&#45;&#45;{{a&#39;,b&#39;},{c&#39;}}</title>
<path fill="none" stroke="black" d="M313.695,-35.2354C328.073,-46.544 347.169,-61.5633 361.522,-72.8527"/>
</g>
</g>
</svg>
