<?xml version="1.0" encoding="UTF-8" standalone="no"?>
<!DOCTYPE svg PUBLIC "-//W3C//DTD SVG 1.1//EN"
 "http://www.w3.org/Graphics/SVG/1.1/DTD/svg11.dtd">
<!-- Generated by graphviz version 2.38.0 (20140413.2041)
 -->
<!-- Title: forest_graph Pages: 1 -->
<svg width="251pt" height="476pt"
 viewBox="0.00 0.00 250.89 476.00" xmlns="http://www.w3.org/2000/svg" xmlns:xlink="http://www.w3.org/1999/xlink">
<g id="graph0" class="graph" transform="scale(1 1) rotate(0) translate(4 472)">
<title>forest_graph</title>
<polygon fill="white" stroke="none" points="-4,4 -4,-472 246.894,-472 246.894,4 -4,4"/>
<!-- {d} -->
<g id="node1" class="node"><title>{d}</title>
<ellipse fill="none" stroke="black" cx="34.4469" cy="-162" rx="27" ry="18"/>
<text text-anchor="middle" x="34.4469" y="-158.3" font-family="Times New Roman,serif" font-size="14.00">{d}</text>
</g>
<!-- {d,e} -->
<g id="node2" class="node"><title>{d,e}</title>
<ellipse fill="none" stroke="black" cx="34.4469" cy="-234" rx="30.5947" ry="18"/>
<text text-anchor="middle" x="34.4469" y="-230.3" font-family="Times New Roman,serif" font-size="14.00">{d,e}</text>
</g>
<!-- {d}&#45;&#45;{d,e} -->
<g id="edge1" class="edge"><title>{d}&#45;&#45;{d,e}</title>
<path fill="none" stroke="black" d="M34.4469,-180.303C34.4469,-191.154 34.4469,-205.083 34.4469,-215.896"/>
</g>
<!-- {d&#39;} -->
<g id="node3" class="node"><title>{d&#39;}</title>
<ellipse fill="none" stroke="black" cx="34.4469" cy="-90" rx="27" ry="18"/>
<text text-anchor="middle" x="34.4469" y="-86.3" font-family="Times New Roman,serif" font-size="14.00">{d&#39;}</text>
</g>
<!-- {d&#39;}&#45;&#45;{d} -->
<g id="edge2" class="edge"><title>{d&#39;}&#45;&#45;{d}</title>
<path fill="none" stroke="black" d="M34.4469,-108.303C34.4469,-119.154 34.4469,-133.083 34.4469,-143.896"/>
</g>
<!-- {d&#39;,e&#39;} -->
<g id="node4" class="node"><title>{d&#39;,e&#39;}</title>
<ellipse fill="none" stroke="black" cx="34.4469" cy="-18" rx="34.394" ry="18"/>
<text text-anchor="middle" x="34.4469" y="-14.3" font-family="Times New Roman,serif" font-size="14.00">{d&#39;,e&#39;}</text>
</g>
<!-- {d&#39;,e&#39;}&#45;&#45;{d&#39;} -->
<g id="edge3" class="edge"><title>{d&#39;,e&#39;}&#45;&#45;{d&#39;}</title>
<path fill="none" stroke="black" d="M34.4469,-36.3034C34.4469,-47.1537 34.4469,-61.0833 34.4469,-71.8957"/>
</g>
<!-- {a} -->
<g id="node5" class="node"><title>{a}</title>
<ellipse fill="none" stroke="black" cx="164.447" cy="-306" rx="27" ry="18"/>
<text text-anchor="middle" x="164.447" y="-302.3" font-family="Times New Roman,serif" font-size="14.00">{a}</text>
</g>
<!-- {a,b} -->
<g id="node6" class="node"><title>{a,b}</title>
<ellipse fill="none" stroke="black" cx="125.447" cy="-378" rx="30.5947" ry="18"/>
<text text-anchor="middle" x="125.447" y="-374.3" font-family="Times New Roman,serif" font-size="14.00">{a,b}</text>
</g>
<!-- {a}&#45;&#45;{a,b} -->
<g id="edge4" class="edge"><title>{a}&#45;&#45;{a,b}</title>
<path fill="none" stroke="black" d="M155.402,-323.235C149.191,-334.382 140.972,-349.135 134.714,-360.367"/>
</g>
<!-- {a,c} -->
<g id="node7" class="node"><title>{a,c}</title>
<ellipse fill="none" stroke="black" cx="204.447" cy="-378" rx="30.5947" ry="18"/>
<text text-anchor="middle" x="204.447" y="-374.3" font-family="Times New Roman,serif" font-size="14.00">{a,c}</text>
</g>
<!-- {a}&#45;&#45;{a,c} -->
<g id="edge5" class="edge"><title>{a}&#45;&#45;{a,c}</title>
<path fill="none" stroke="black" d="M173.724,-323.235C180.094,-334.382 188.524,-349.135 194.942,-360.367"/>
</g>
<!-- {a,b,c} -->
<g id="node8" class="node"><title>{a,b,c}</title>
<ellipse fill="none" stroke="black" cx="164.447" cy="-450" rx="37.8943" ry="18"/>
<text text-anchor="middle" x="164.447" y="-446.3" font-family="Times New Roman,serif" font-size="14.00">{a,b,c}</text>
</g>
<!-- {a,b}&#45;&#45;{a,b,c} -->
<g id="edge6" class="edge"><title>{a,b}&#45;&#45;{a,b,c}</title>
<path fill="none" stroke="black" d="M134.492,-395.235C140.703,-406.382 148.922,-421.135 155.18,-432.367"/>
</g>
<!-- {a,c}&#45;&#45;{a,b,c} -->
<g id="edge7" class="edge"><title>{a,c}&#45;&#45;{a,b,c}</title>
<path fill="none" stroke="black" d="M195.17,-395.235C188.8,-406.382 180.37,-421.135 173.952,-432.367"/>
</g>
<!-- {1/2} -->
<g id="node9" class="node"><title>{1/2}</title>
<ellipse fill="none" stroke="black" cx="164.447" cy="-234" rx="30.5947" ry="18"/>
<text text-anchor="middle" x="164.447" y="-230.3" font-family="Times New Roman,serif" font-size="14.00">{1/2}</text>
</g>
<!-- {1/2}&#45;&#45;{a} -->
<g id="edge8" class="edge"><title>{1/2}&#45;&#45;{a}</title>
<path fill="none" stroke="black" d="M164.447,-252.303C164.447,-263.154 164.447,-277.083 164.447,-287.896"/>
</g>
<!-- {a&#39;} -->
<g id="node10" class="node"><title>{a&#39;}</title>
<ellipse fill="none" stroke="black" cx="164.447" cy="-162" rx="27" ry="18"/>
<text text-anchor="middle" x="164.447" y="-158.3" font-family="Times New Roman,serif" font-size="14.00">{a&#39;}</text>
</g>
<!-- {a&#39;}&#45;&#45;{1/2} -->
<g id="edge9" class="edge"><title>{a&#39;}&#45;&#45;{1/2}</title>
<path fill="none" stroke="black" d="M164.447,-180.303C164.447,-191.154 164.447,-205.083 164.447,-215.896"/>
</g>
<!-- {a&#39;,b&#39;} -->
<g id="node11" class="node"><title>{a&#39;,b&#39;}</title>
<ellipse fill="none" stroke="black" cx="121.447" cy="-90" rx="34.394" ry="18"/>
<text text-anchor="middle" x="121.447" y="-86.3" font-family="Times New Roman,serif" font-size="14.00">{a&#39;,b&#39;}</text>
</g>
<!-- {a&#39;,b&#39;}&#45;&#45;{a&#39;} -->
<g id="edge10" class="edge"><title>{a&#39;,b&#39;}&#45;&#45;{a&#39;}</title>
<path fill="none" stroke="black" d="M131.42,-107.235C138.367,-118.544 147.593,-133.563 154.528,-144.853"/>
</g>
<!-- {a&#39;,c&#39;} -->
<g id="node12" class="node"><title>{a&#39;,c&#39;}</title>
<ellipse fill="none" stroke="black" cx="208.447" cy="-90" rx="34.394" ry="18"/>
<text text-anchor="middle" x="208.447" y="-86.3" font-family="Times New Roman,serif" font-size="14.00">{a&#39;,c&#39;}</text>
</g>
<!-- {a&#39;,c&#39;}&#45;&#45;{a&#39;} -->
<g id="edge11" class="edge"><title>{a&#39;,c&#39;}&#45;&#45;{a&#39;}</title>
<path fill="none" stroke="black" d="M198.242,-107.235C191.134,-118.544 181.693,-133.563 174.597,-144.853"/>
</g>
<!-- {a&#39;,b&#39;,c&#39;} -->
<g id="node13" class="node"><title>{a&#39;,b&#39;,c&#39;}</title>
<ellipse fill="none" stroke="black" cx="169.447" cy="-18" rx="43.5923" ry="18"/>
<text text-anchor="middle" x="169.447" y="-14.3" font-family="Times New Roman,serif" font-size="14.00">{a&#39;,b&#39;,c&#39;}</text>
</g>
<!-- {a&#39;,b&#39;,c&#39;}&#45;&#45;{a&#39;,b&#39;} -->
<g id="edge12" class="edge"><title>{a&#39;,b&#39;,c&#39;}&#45;&#45;{a&#39;,b&#39;}</title>
<path fill="none" stroke="black" d="M158.072,-35.589C150.42,-46.7476 140.375,-61.3964 132.741,-72.5301"/>
</g>
<!-- {a&#39;,b&#39;,c&#39;}&#45;&#45;{a&#39;,c&#39;} -->
<g id="edge13" class="edge"><title>{a&#39;,b&#39;,c&#39;}&#45;&#45;{a&#39;,c&#39;}</title>
<path fill="none" stroke="black" d="M178.888,-35.945C185.02,-46.9508 192.979,-61.2364 199.093,-72.211"/>
</g>
</g>
</svg>
