<?xml version="1.0" encoding="UTF-8" standalone="no"?>
<!DOCTYPE svg PUBLIC "-//W3C//DTD SVG 1.1//EN"
 "http://www.w3.org/Graphics/SVG/1.1/DTD/svg11.dtd">
<!-- Generated by graphviz version 2.38.0 (20140413.2041)
 -->
<!-- Title: forest_graph Pages: 1 -->
<svg width="171pt" height="332pt"
 viewBox="0.00 0.00 171.39 332.00" xmlns="http://www.w3.org/2000/svg" xmlns:xlink="http://www.w3.org/1999/xlink">
<g id="graph0" class="graph" transform="scale(1 1) rotate(0) translate(4 328)">
<title>forest_graph</title>
<polygon fill="white" stroke="none" points="-4,4 -4,-328 167.393,-328 167.393,4 -4,4"/>
<!-- {a} -->
<g id="node1" class="node"><title>{a}</title>
<ellipse fill="none" stroke="black" cx="34.4469" cy="-162" rx="27" ry="18"/>
<text text-anchor="middle" x="34.4469" y="-158.3" font-family="Times New Roman,serif" font-size="14.00">{a}</text>
</g>
<!-- {a,b} -->
<g id="node2" class="node"><title>{a,b}</title>
<ellipse fill="none" stroke="black" cx="34.4469" cy="-234" rx="30.5947" ry="18"/>
<text text-anchor="middle" x="34.4469" y="-230.3" font-family="Times New Roman,serif" font-size="14.00">{a,b}</text>
</g>
<!-- {a}&#45;&#45;{a,b} -->
<g id="edge1" class="edge"><title>{a}&#45;&#45;{a,b}</title>
<path fill="none" stroke="black" d="M34.4469,-180.303C34.4469,-191.154 34.4469,-205.083 34.4469,-215.896"/>
</g>
<!-- {a&#39;} -->
<g id="node3" class="node"><title>{a&#39;}</title>
<ellipse fill="none" stroke="black" cx="34.4469" cy="-90" rx="27" ry="18"/>
<text text-anchor="middle" x="34.4469" y="-86.3" font-family="Times New Roman,serif" font-size="14.00">{a&#39;}</text>
</g>
<!-- {a&#39;}&#45;&#45;{a} -->
<g id="edge2" class="edge"><title>{a&#39;}&#45;&#45;{a}</title>
<path fill="none" stroke="black" d="M34.4469,-108.303C34.4469,-119.154 34.4469,-133.083 34.4469,-143.896"/>
</g>
<!-- {a&#39;,b&#39;} -->
<g id="node4" class="node"><title>{a&#39;,b&#39;}</title>
<ellipse fill="none" stroke="black" cx="34.4469" cy="-18" rx="34.394" ry="18"/>
<text text-anchor="middle" x="34.4469" y="-14.3" font-family="Times New Roman,serif" font-size="14.00">{a&#39;,b&#39;}</text>
</g>
<!-- {a&#39;,b&#39;}&#45;&#45;{a&#39;} -->
<g id="edge3" class="edge"><title>{a&#39;,b&#39;}&#45;&#45;{a&#39;}</title>
<path fill="none" stroke="black" d="M34.4469,-36.3034C34.4469,-47.1537 34.4469,-61.0833 34.4469,-71.8957"/>
</g>
<!-- {c} -->
<g id="node5" class="node"><title>{c}</title>
<ellipse fill="none" stroke="black" cx="122.447" cy="-234" rx="27" ry="18"/>
<text text-anchor="middle" x="122.447" y="-230.3" font-family="Times New Roman,serif" font-size="14.00">{c}</text>
</g>
<!-- {c,d} -->
<g id="node6" class="node"><title>{c,d}</title>
<ellipse fill="none" stroke="black" cx="122.447" cy="-306" rx="31.3957" ry="18"/>
<text text-anchor="middle" x="122.447" y="-302.3" font-family="Times New Roman,serif" font-size="14.00">{c,d}</text>
</g>
<!-- {c}&#45;&#45;{c,d} -->
<g id="edge4" class="edge"><title>{c}&#45;&#45;{c,d}</title>
<path fill="none" stroke="black" d="M122.447,-252.303C122.447,-263.154 122.447,-277.083 122.447,-287.896"/>
</g>
<!-- {1/2(1)} -->
<g id="node7" class="node"><title>{1/2(1)}</title>
<ellipse fill="none" stroke="black" cx="122.447" cy="-162" rx="40.8928" ry="18"/>
<text text-anchor="middle" x="122.447" y="-158.3" font-family="Times New Roman,serif" font-size="14.00">{1/2(1)}</text>
</g>
<!-- {1/2(1)}&#45;&#45;{c} -->
<g id="edge5" class="edge"><title>{1/2(1)}&#45;&#45;{c}</title>
<path fill="none" stroke="black" d="M122.447,-180.303C122.447,-191.154 122.447,-205.083 122.447,-215.896"/>
</g>
<!-- {c&#39;} -->
<g id="node8" class="node"><title>{c&#39;}</title>
<ellipse fill="none" stroke="black" cx="122.447" cy="-90" rx="27" ry="18"/>
<text text-anchor="middle" x="122.447" y="-86.3" font-family="Times New Roman,serif" font-size="14.00">{c&#39;}</text>
</g>
<!-- {c&#39;}&#45;&#45;{1/2(1)} -->
<g id="edge6" class="edge"><title>{c&#39;}&#45;&#45;{1/2(1)}</title>
<path fill="none" stroke="black" d="M122.447,-108.303C122.447,-119.154 122.447,-133.083 122.447,-143.896"/>
</g>
<!-- {c&#39;,d&#39;} -->
<g id="node9" class="node"><title>{c&#39;,d&#39;}</title>
<ellipse fill="none" stroke="black" cx="122.447" cy="-18" rx="35.194" ry="18"/>
<text text-anchor="middle" x="122.447" y="-14.3" font-family="Times New Roman,serif" font-size="14.00">{c&#39;,d&#39;}</text>
</g>
<!-- {c&#39;,d&#39;}&#45;&#45;{c&#39;} -->
<g id="edge7" class="edge"><title>{c&#39;,d&#39;}&#45;&#45;{c&#39;}</title>
<path fill="none" stroke="black" d="M122.447,-36.3034C122.447,-47.1537 122.447,-61.0833 122.447,-71.8957"/>
</g>
</g>
</svg>
